#!OML:ASF F:\VICON\USERDATA\INSTALL\rory3\rory3.ASF
:FULLY-SPECIFIED
:DEGREES
3883
root 1.10584 17.5645 -3.56729 -1.25154 11.5983 -0.858044
lowerback 2.52983 -1.66363 -1.76271
upperback 1.15784 -2.24123 3.85428
thorax -0.00467905 -1.14159 5.01938
lowerneck -16.6836 -4.05159 -10.3307
upperneck 34.1358 -3.85623 3.63562
head 14.9846 -2.46595 2.64123
rclavicle -9.88954e-015 7.95139e-016
rhumerus 27.5923 3.09382 -65.2113
rradius 94.5214
rwrist -61.4066
rhand 9.2908 12.3946
rfingers 7.12502
rthumb 34.4534 -14.2874
lclavicle -9.88954e-015 7.95139e-016
lhumerus 27.031 -7.00511 80.2978
lradius 92.3144
lwrist 64.2188
lhand 23.1157 23.4686
lfingers 7.12502
lthumb 47.4257 -1034.06
rfemur -19.0757 6.15526 13.9715
rtibia 32.0869
rfoot -1.44611 21.3755
rtoes 13.7977
lfemur -9.52888 -6.92565 -12.1695
ltibia 29.7483
lfoot -16.8656 -7.0335
ltoes -16.3133
3884
root 1.17334 17.5625 -3.59702 -1.19833 11.2993 -0.617917
lowerback 2.35712 -1.61962 -2.11208
upperback 1.44241 -2.19649 3.82639
thorax 0.393031 -1.13359 5.1769
lowerneck -16.6994 -4.10015 -10.298
upperneck 33.7609 -4.05745 3.96891
head 14.8356 -2.49375 2.7321
rclavicle -3.86636e-014 1.74931e-014
rhumerus 26.614 3.1144 -64.7651
rradius 96.9065
rwrist -61.1218
rhand 11.9894 12.9809
rfingers 7.12502
rthumb 37.0106 -13.0808
lclavicle -3.86636e-014 1.74931e-014
lhumerus 25.8178 -7.37062 80.1211
lradius 94.9919
lwrist 63.5431
lhand 24.5347 23.7311
lfingers 7.12502
lthumb 48.7337 -1034.41
rfemur -19.1432 6.39166 13.4444
rtibia 31.9464
rfoot -1.34018 21.3803
rtoes 13.9486
lfemur -9.68574 -6.66701 -12.6677
ltibia 29.9902
lfoot -16.892 -7.12809
ltoes -16.1869
3885
root 1.23852 17.5603 -3.6264 -1.09975 11.0263 -0.344499
lowerback 2.57877 -1.57923 -2.48286
upperback 1.38816 -2.15077 3.73245
thorax 0.218741 -1.10853 5.29759
lowerneck -16.5724 -4.10402 -10.092
upperneck 33.6181 -4.24619 4.23511
head 14.7545 -2.51047 2.77269
rclavicle -2.71838e-014 2.70347e-014
rhumerus 24.9579 3.39707 -64.5059
rradius 99.2139
rwrist -60.4516
rhand 14.3592 13.7119
rfingers 7.12502
rthumb 39.2481 -11.7366
lclavicle -2.71838e-014 2.70347e-014
lhumerus 24.0739 -7.94089 79.8006
lradius 97.4761
lwrist 63.3363
lhand 26.5238 23.6637
lfingers 7.12502
lthumb 50.5564 -1035.41
rfemur -19.2458 6.59469 12.8953
rtibia 31.8104
rfoot -1.45248 21.3495
rtoes 13.212
lfemur -9.87927 -6.39454 -13.197
ltibia 30.2016
lfoot -16.794 -7.25746
ltoes -15.6331
3886
root 1.30409 17.5618 -3.65152 -0.985528 10.7619 -0.0891564
lowerback 2.65003 -1.57257 -2.72792
upperback 1.43874 -2.14935 3.61881
thorax 0.235676 -1.11035 5.31965
lowerneck -16.7748 -4.10499 -9.87561
upperneck 33.5581 -4.34366 4.35538
head 14.7756 -2.5055 2.76496
rclavicle 9.24349e-015 6.36111e-015
rhumerus 23.3925 3.71783 -64.2903
rradius 101.428
rwrist -59.616
rhand 15.9003 14.0105
rfingers 7.12502
rthumb 40.6984 -11.001
lclavicle 9.24349e-015 6.36111e-015
lhumerus 22.3409 -8.46139 79.4246
lradius 99.8192
lwrist 63.1864
lhand 28.1039 23.2542
lfingers 7.12502
lthumb 51.9944 -1036.64
rfemur -19.352 6.85273 12.3478
rtibia 31.6566
rfoot -1.5403 21.2692
rtoes 12.5887
lfemur -10.0682 -6.17848 -13.7139
ltibia 30.3757
lfoot -16.6448 -7.32423
ltoes -14.6889
3887
root 1.37115 17.5619 -3.67548 -1.00507 10.5414 -0.0529286
lowerback 2.73387 -1.625 -2.71627
upperback 1.71296 -2.22404 3.61344
thorax 0.47906 -1.15828 5.3063
lowerneck -17.6347 -4.14767 -9.83207
upperneck 33.5459 -4.35857 4.43581
head 14.9681 -2.4866 2.78012
rclavicle -3.38928e-014 3.49861e-014
rhumerus 22.2456 4.03209 -64.0146
rradius 103.423
rwrist -58.7521
rhand 17.4619 14.5706
rfingers 7.12502
rthumb 42.1637 -9.96434
lclavicle -3.38928e-014 3.49861e-014
lhumerus 20.8844 -8.79373 79.1152
lradius 102.17
lwrist 62.6485
lhand 28.9336 23.257
lfingers 7.12502
lthumb 52.7457 -1037.09
rfemur -19.323 7.24129 12.0377
rtibia 31.4843
rfoot -1.74163 21.0936
rtoes 11.749
lfemur -10.1347 -6.04146 -13.9968
ltibia 30.5048
lfoot -16.5828 -7.38763
ltoes -13.9647
3888
root 1.43986 17.5589 -3.70389 -0.963997 10.287 -0.00536194
lowerback 3.41649 -1.64515 -2.64752
upperback 1.27848 -2.25025 3.47137
thorax -0.356489 -1.14383 5.1519
lowerneck -17.1614 -4.07722 -9.54307
upperneck 33.5055 -4.45147 4.54797
head 14.84 -2.47995 2.7636
rclavicle -2.32081e-014 6.20208e-014
rhumerus 19.8089 4.69033 -64.0544
rradius 105.26
rwrist -57.8025
rhand 19.4582 15.8984
rfingers 7.12502
rthumb 44.03 -7.97324
lclavicle -2.32081e-014 6.20208e-014
lhumerus 18.2645 -9.54433 78.8067
lradius 104.515
lwrist 61.9213
lhand 29.7741 23.5626
lfingers 7.12502
lthumb 53.5037 -1037.27
rfemur -19.3553 7.60065 11.6986
rtibia 31.2756
rfoot -1.88597 20.9438
rtoes 11.1497
lfemur -10.2366 -5.81482 -14.2992
ltibia 30.6032
lfoot -16.647 -7.41543
ltoes -13.9928
3889
root 1.51066 17.5587 -3.7355 -0.829945 9.96265 0.146728
lowerback 2.94091 -1.56565 -2.71299
upperback 1.63231 -2.14619 3.33352
thorax 0.259607 -1.11116 5.01873
lowerneck -17.048 -4.19776 -9.4535
upperneck 32.8154 -4.7815 4.90073
head 14.5333 -2.55268 2.82117
rclavicle -4.19933e-014 4.45278e-014
rhumerus 18.354 4.72102 -63.9227
rradius 106.784
rwrist -56.9392
rhand 21.7889 17.2581
rfingers 7.12502
rthumb 46.1978 -5.75365
lclavicle -4.19933e-014 4.45278e-014
lhumerus 16.9741 -10.3086 78.3908
lradius 106.549
lwrist 61.2684
lhand 30.3613 23.791
lfingers 7.12502
lthumb 54.0315 -1037.39
rfemur -19.4818 7.92661 11.2442
rtibia 31.0298
rfoot -2.0412 20.7926
rtoes 10.0626
lfemur -10.3829 -5.62625 -14.7381
ltibia 30.6869
lfoot -16.7668 -7.20603
ltoes -14.4242
3890
root 1.58191 17.5625 -3.76531 -0.780222 9.68539 0.161321
lowerback 2.79768 -1.54984 -2.64811
upperback 1.80797 -2.12413 3.27992
thorax 0.513617 -1.1077 4.91751
lowerneck -17.1675 -4.27852 -9.43122
upperneck 32.4534 -4.97489 5.14733
head 14.4203 -2.5936 2.8752
rclavicle -4.17448e-015 -1.59028e-015
rhumerus 16.7299 5.06528 -63.7936
rradius 108.089
rwrist -56.0312
rhand 24.1892 18.0455
rfingers 7.12502
rthumb 48.4157 -3.97097
lclavicle -4.17448e-015 -1.59028e-015
lhumerus 15.3947 -10.9848 78.0704
lradius 108.331
lwrist 60.5537
lhand 30.5933 24.0046
lfingers 7.12502
lthumb 54.2395 -1037.32
rfemur -19.494 8.33623 10.9541
rtibia 30.7528
rfoot -2.37401 20.4929
rtoes 9.07908
lfemur -10.4539 -5.49096 -15.0373
ltibia 30.7521
lfoot -16.8418 -6.95288
ltoes -14.5008
3891
root 1.65215 17.5686 -3.79274 -0.730037 9.29176 0.198176
lowerback 3.42152 -1.58053 -2.56216
upperback 1.46634 -2.16549 3.22679
thorax -0.188375 -1.10693 4.84167
lowerneck -17.3462 -4.22854 -9.43244
upperneck 32.6379 -4.95011 5.30218
head 14.5457 -2.56374 2.94682
rclavicle -2.08724e-014 -8.74653e-015
rhumerus 14.5241 5.97093 -63.7641
rradius 109.203
rwrist -55.1942
rhand 26.5301 18.7792
rfingers 7.12502
rthumb 50.5621 -2.14333
lclavicle -2.08724e-014 -8.74653e-015
lhumerus 12.8552 -11.5378 77.9662
lradius 109.873
lwrist 59.7015
lhand 31.4252 24.055
lfingers 7.12502
lthumb 54.9835 -1037.79
rfemur -19.5136 8.79945 10.6528
rtibia 30.4635
rfoot -2.5833 20.1297
rtoes 8.94547
lfemur -10.471 -5.22262 -15.3538
ltibia 30.774
lfoot -16.8751 -6.80429
ltoes -14.1382
3892
root 1.72182 17.571 -3.82213 -0.652 8.76115 0.145953
lowerback 3.405 -1.45397 -2.52662
upperback 1.41388 -1.99477 3.21992
thorax -0.252276 -1.01893 4.80985
lowerneck -16.981 -4.24428 -9.35989
upperneck 32.1858 -5.09428 5.51194
head 14.2765 -2.58874 2.98737
rclavicle 1.95306e-014 3.97569e-015
rhumerus 12.4913 6.46142 -63.5945
rradius 109.957
rwrist -54.5272
rhand 28.4947 20.122
rfingers 7.12502
rthumb 52.3486 0.22577
lclavicle 1.95306e-014 3.97569e-015
lhumerus 10.8662 -12.2863 77.9838
lradius 111.026
lwrist 58.7884
lhand 33.0265 24.0091
lfingers 7.12502
lthumb 56.4053 -1038.92
rfemur -19.6424 9.31259 10.4483
rtibia 30.154
rfoot -2.49833 19.6641
rtoes 9.55639
lfemur -10.5339 -4.98563 -15.5695
ltibia 30.7659
lfoot -16.9431 -6.51032
ltoes -13.8385
3893
root 1.79101 17.5706 -3.85567 -0.588943 8.33014 0.183908
lowerback 2.72979 -1.35695 -2.46697
upperback 1.95608 -1.86383 3.13095
thorax 0.66503 -0.979838 4.65054
lowerneck -17.173 -4.32703 -9.36839
upperneck 31.3553 -5.29009 5.88856
head 13.9815 -2.61186 3.08587
rclavicle 2.60905e-014 -1.59028e-014
rhumerus 11.3586 6.55762 -63.5222
rradius 110.368
rwrist -53.8764
rhand 30.0258 21.3536
rfingers 7.12502
rthumb 53.7301 2.3347
lclavicle 2.60905e-014 -1.59028e-014
lhumerus 10.0879 -12.8372 77.8368
lradius 111.791
lwrist 57.9285
lhand 34.835 23.9735
lfingers 7.12502
lthumb 57.9933 -1040.3
rfemur -19.7472 9.80632 10.1309
rtibia 29.8568
rfoot -2.69253 18.9993
rtoes 9.49809
lfemur -10.635 -4.79015 -15.8787
ltibia 30.7447
lfoot -16.9687 -6.27973
ltoes -13.3542
3894
root 1.86281 17.5729 -3.88766 -0.477556 7.95959 0.296244
lowerback 3.21807 -1.36134 -2.444
upperback 1.67597 -1.8708 3.04926
thorax 0.100453 -0.966984 4.57119
lowerneck -17.4374 -4.29392 -9.26627
upperneck 31.3678 -5.2746 5.94747
head 14.0411 -2.5822 3.09267
rclavicle -8.29926e-015 1.35174e-014
rhumerus 9.35026 7.40071 -63.6229
rradius 110.617
rwrist -53.19
rhand 31.5859 21.8269
rfingers 7.12502
rthumb 55.1269 3.78039
lclavicle -8.29926e-015 1.35174e-014
lhumerus 8.04645 -13.3004 77.9349
lradius 112.395
lwrist 57.1404
lhand 36.6731 24.2252
lfingers 7.12502
lthumb 59.5849 -1041.57
rfemur -19.8579 10.1788 9.70872
rtibia 29.5939
rfoot -3.3102 18.2129
rtoes 8.85527
lfemur -10.7656 -4.57826 -16.2809
ltibia 30.7397
lfoot -16.9137 -6.09401
ltoes -12.9801
3895
root 1.93099 17.5771 -3.91809 -0.367887 7.51502 0.35021
lowerback 2.3793 -1.26193 -2.41079
upperback 2.29845 -1.73603 2.97712
thorax 1.19413 -0.92945 4.4427
lowerneck -18.1289 -4.42701 -9.22254
upperneck 30.7434 -5.48285 6.22092
head 13.9475 -2.61294 3.1369
rclavicle 8.15017e-015 3.97569e-015
rhumerus 8.63758 7.43238 -63.54
rradius 110.346
rwrist -52.5029
rhand 33.4472 21.7527
rfingers 7.12502
rthumb 56.7766 4.98211
lclavicle 8.15017e-015 3.97569e-015
lhumerus 7.69323 -13.7309 77.8015
lradius 112.483
lwrist 56.2442
lhand 38.542 24.8232
lfingers 7.12502
lthumb 61.176 -1042.69
rfemur -19.9776 10.5182 9.38353
rtibia 29.3774
rfoot -4.23973 17.2603
rtoes 7.18883
lfemur -10.8802 -4.23683 -16.6014
ltibia 30.7427
lfoot -16.8237 -5.95209
ltoes -12.6771
